# xmcd CD database file
#
# Track frame offsets:
#	150
#	16905
#	39195
#	59640
#	75325
#	91190
#	107922
#	121572
#	144247
#	157232
#
# Disc length: 2368 seconds
#
# Revision: 0
# Processed by: cddbd v1.5.1PL2 Copyright (c) Steve Scherf et al.
# Submitted via: CDex 1.51
#
DISCID=70093e0a
DTITLE=The Cottonmouth Band - Ready, Willin' and Able
DYEAR=1998
DGENRE=Blues
TTITLE0=Do Me Right
TTITLE1=Got To Say Good Bye
TTITLE2=Hot Rod
TTITLE3=On The Road
TTITLE4=Gone, Gone, Gone
TTITLE5=Ready, Willin' and Able
TTITLE6=Whole Lotta Woman
TTITLE7=Looks Like Rain
TTITLE8=Gettin' A Hold On It
TTITLE9=Crossroads
EXTD=YEAR: 1998
EXTT0=
EXTT1=
EXTT2=
EXTT3=
EXTT4=
EXTT5=
EXTT6=
EXTT7=
EXTT8=
EXTT9=
PLAYORDER=
